<svg id="visual" viewBox="0 0 960 540" width="960" height="540" xmlns="http://www.w3.org/2000/svg" xmlns:xlink="http://www.w3.org/1999/xlink" version="1.1"><rect x="0" y="0" width="960" height="540" fill="#ffffff"></rect><defs><linearGradient id="grad1_0" x1="43.8%" y1="0%" x2="100%" y2="100%"><stop offset="14.444444444444446%" stop-color="#4f81ff" stop-opacity="1"></stop><stop offset="85.55555555555554%" stop-color="#4f81ff" stop-opacity="1"></stop></linearGradient></defs><defs><linearGradient id="grad1_1" x1="43.8%" y1="0%" x2="100%" y2="100%"><stop offset="14.444444444444446%" stop-color="#4f81ff" stop-opacity="1"></stop><stop offset="85.55555555555554%" stop-color="#99a9ff" stop-opacity="1"></stop></linearGradient></defs><defs><linearGradient id="grad1_2" x1="43.8%" y1="0%" x2="100%" y2="100%"><stop offset="14.444444444444446%" stop-color="#cfd3ff" stop-opacity="1"></stop><stop offset="85.55555555555554%" stop-color="#99a9ff" stop-opacity="1"></stop></linearGradient></defs><defs><linearGradient id="grad1_3" x1="43.8%" y1="0%" x2="100%" y2="100%"><stop offset="14.444444444444446%" stop-color="#cfd3ff" stop-opacity="1"></stop><stop offset="85.55555555555554%" stop-color="#ffffff" stop-opacity="1"></stop></linearGradient></defs><defs><linearGradient id="grad2_0" x1="0%" y1="0%" x2="56.3%" y2="100%"><stop offset="14.444444444444446%" stop-color="#4f81ff" stop-opacity="1"></stop><stop offset="85.55555555555554%" stop-color="#4f81ff" stop-opacity="1"></stop></linearGradient></defs><defs><linearGradient id="grad2_1" x1="0%" y1="0%" x2="56.3%" y2="100%"><stop offset="14.444444444444446%" stop-color="#99a9ff" stop-opacity="1"></stop><stop offset="85.55555555555554%" stop-color="#4f81ff" stop-opacity="1"></stop></linearGradient></defs><defs><linearGradient id="grad2_2" x1="0%" y1="0%" x2="56.3%" y2="100%"><stop offset="14.444444444444446%" stop-color="#99a9ff" stop-opacity="1"></stop><stop offset="85.55555555555554%" stop-color="#cfd3ff" stop-opacity="1"></stop></linearGradient></defs><defs><linearGradient id="grad2_3" x1="0%" y1="0%" x2="56.3%" y2="100%"><stop offset="14.444444444444446%" stop-color="#ffffff" stop-opacity="1"></stop><stop offset="85.55555555555554%" stop-color="#cfd3ff" stop-opacity="1"></stop></linearGradient></defs><g transform="translate(960, 0)"><path d="M0 267C-21.3 269.4 -42.6 271.7 -60.1 263.2C-77.5 254.8 -91.1 235.4 -108 224.3C-125 213.2 -145.3 210.3 -157.7 197.8C-170.2 185.3 -174.9 163.1 -182.9 145.9C-191 128.7 -202.5 116.5 -212.6 102.4C-222.7 88.3 -231.5 72.1 -239.8 54.7C-248.2 37.3 -256.1 18.7 -264 0L0 0Z" fill="#e8e9ff"></path><path d="M0 200.3C-16 202 -32 203.8 -45.1 197.4C-58.1 191.1 -68.3 176.6 -81 168.3C-93.7 159.9 -109 157.8 -118.3 148.4C-127.7 138.9 -131.2 122.3 -137.2 109.4C-143.3 96.5 -151.9 87.4 -159.5 76.8C-167.1 66.2 -173.6 54.1 -179.9 41.1C-186.1 28 -192.1 14 -198 0L0 0Z" fill="#b6bdff"></path><path d="M0 133.5C-10.7 134.7 -21.3 135.9 -30 131.6C-38.8 127.4 -45.6 117.7 -54 112.2C-62.5 106.6 -72.6 105.2 -78.9 98.9C-85.1 92.6 -87.4 81.5 -91.5 72.9C-95.5 64.4 -101.3 58.3 -106.3 51.2C-111.4 44.1 -115.7 36.1 -119.9 27.4C-124.1 18.7 -128 9.3 -132 0L0 0Z" fill="#7994ff"></path><path d="M0 66.8C-5.3 67.3 -10.7 67.9 -15 65.8C-19.4 63.7 -22.8 58.9 -27 56.1C-31.2 53.3 -36.3 52.6 -39.4 49.5C-42.6 46.3 -43.7 40.8 -45.7 36.5C-47.8 32.2 -50.6 29.1 -53.2 25.6C-55.7 22.1 -57.9 18 -60 13.7C-62 9.3 -64 4.7 -66 0L0 0Z" fill="#4f81ff"></path></g><g transform="translate(0, 540)"><path d="M0 -245C18.4 -243.9 36.8 -242.7 54.5 -238.9C72.2 -235 89.3 -228.3 107.2 -222.5C125 -216.8 143.7 -211.9 162.7 -204.1C181.8 -196.3 201.2 -185.5 211.1 -168.3C221 -151.1 221.4 -127.5 221.6 -106.7C221.9 -86 221.9 -68.3 223.3 -51C224.6 -33.7 227.3 -16.8 230 0L0 0Z" fill="#e8e9ff"></path><path d="M0 -183.7C13.8 -182.9 27.6 -182.1 40.9 -179.1C54.2 -176.2 67 -171.2 80.4 -166.9C93.8 -162.6 107.8 -158.9 122 -153C136.3 -147.2 150.9 -139.2 158.3 -126.3C165.8 -113.4 166.1 -95.6 166.2 -80.1C166.4 -64.5 166.4 -51.2 167.4 -38.2C168.5 -25.2 170.5 -12.6 172.5 0L0 0Z" fill="#b6bdff"></path><path d="M0 -122.5C9.2 -121.9 18.4 -121.4 27.3 -119.4C36.1 -117.5 44.7 -114.2 53.6 -111.3C62.5 -108.4 71.8 -105.9 81.4 -102C90.9 -98.1 100.6 -92.8 105.5 -84.2C110.5 -75.6 110.7 -63.7 110.8 -53.4C110.9 -43 110.9 -34.1 111.6 -25.5C112.3 -16.8 113.7 -8.4 115 0L0 0Z" fill="#7994ff"></path><path d="M0 -61.2C4.6 -61 9.2 -60.7 13.6 -59.7C18.1 -58.7 22.3 -57.1 26.8 -55.6C31.3 -54.2 35.9 -53 40.7 -51C45.4 -49.1 50.3 -46.4 52.8 -42.1C55.3 -37.8 55.4 -31.9 55.4 -26.7C55.5 -21.5 55.5 -17.1 55.8 -12.7C56.2 -8.4 56.8 -4.2 57.5 0L0 0Z" fill="#4f81ff"></path></g></svg>