<svg id="visual" viewBox="0 0 960 540" width="960" height="540" xmlns="http://www.w3.org/2000/svg" xmlns:xlink="http://www.w3.org/1999/xlink" version="1.1"><rect x="0" y="0" width="960" height="540" fill="#ffffff"></rect><defs><linearGradient id="grad1_0" x1="43.8%" y1="100%" x2="100%" y2="0%"><stop offset="14.444444444444446%" stop-color="#4f81ff" stop-opacity="1"></stop><stop offset="85.55555555555554%" stop-color="#4f81ff" stop-opacity="1"></stop></linearGradient></defs><defs><linearGradient id="grad1_1" x1="43.8%" y1="100%" x2="100%" y2="0%"><stop offset="14.444444444444446%" stop-color="#4f81ff" stop-opacity="1"></stop><stop offset="85.55555555555554%" stop-color="#99a9ff" stop-opacity="1"></stop></linearGradient></defs><defs><linearGradient id="grad1_2" x1="43.8%" y1="100%" x2="100%" y2="0%"><stop offset="14.444444444444446%" stop-color="#cfd3ff" stop-opacity="1"></stop><stop offset="85.55555555555554%" stop-color="#99a9ff" stop-opacity="1"></stop></linearGradient></defs><defs><linearGradient id="grad1_3" x1="43.8%" y1="100%" x2="100%" y2="0%"><stop offset="14.444444444444446%" stop-color="#cfd3ff" stop-opacity="1"></stop><stop offset="85.55555555555554%" stop-color="#ffffff" stop-opacity="1"></stop></linearGradient></defs><defs><linearGradient id="grad2_0" x1="0%" y1="100%" x2="56.3%" y2="0%"><stop offset="14.444444444444446%" stop-color="#4f81ff" stop-opacity="1"></stop><stop offset="85.55555555555554%" stop-color="#4f81ff" stop-opacity="1"></stop></linearGradient></defs><defs><linearGradient id="grad2_1" x1="0%" y1="100%" x2="56.3%" y2="0%"><stop offset="14.444444444444446%" stop-color="#99a9ff" stop-opacity="1"></stop><stop offset="85.55555555555554%" stop-color="#4f81ff" stop-opacity="1"></stop></linearGradient></defs><defs><linearGradient id="grad2_2" x1="0%" y1="100%" x2="56.3%" y2="0%"><stop offset="14.444444444444446%" stop-color="#99a9ff" stop-opacity="1"></stop><stop offset="85.55555555555554%" stop-color="#cfd3ff" stop-opacity="1"></stop></linearGradient></defs><defs><linearGradient id="grad2_3" x1="0%" y1="100%" x2="56.3%" y2="0%"><stop offset="14.444444444444446%" stop-color="#ffffff" stop-opacity="1"></stop><stop offset="85.55555555555554%" stop-color="#cfd3ff" stop-opacity="1"></stop></linearGradient></defs><g transform="translate(960, 540)"><path d="M-267 0C-269.4 -21.3 -271.7 -42.6 -263.2 -60.1C-254.8 -77.5 -235.4 -91.1 -224.3 -108C-213.2 -125 -210.3 -145.3 -197.8 -157.7C-185.3 -170.2 -163.1 -174.9 -145.9 -182.9C-128.7 -191 -116.5 -202.5 -102.4 -212.6C-88.3 -222.7 -72.1 -231.5 -54.7 -239.8C-37.3 -248.2 -18.7 -256.1 0 -264L0 0Z" fill="#e8e9ff"></path><path d="M-200.2 0C-202 -16 -203.8 -32 -197.4 -45.1C-191.1 -58.1 -176.6 -68.3 -168.3 -81C-159.9 -93.7 -157.8 -109 -148.4 -118.3C-138.9 -127.7 -122.3 -131.2 -109.4 -137.2C-96.5 -143.3 -87.4 -151.9 -76.8 -159.5C-66.2 -167.1 -54.1 -173.6 -41.1 -179.9C-28 -186.1 -14 -192.1 0 -198L0 0Z" fill="#b6bdff"></path><path d="M-133.5 0C-134.7 -10.7 -135.9 -21.3 -131.6 -30C-127.4 -38.8 -117.7 -45.6 -112.2 -54C-106.6 -62.5 -105.2 -72.6 -98.9 -78.9C-92.6 -85.1 -81.5 -87.4 -72.9 -91.5C-64.4 -95.5 -58.3 -101.3 -51.2 -106.3C-44.1 -111.4 -36.1 -115.7 -27.4 -119.9C-18.7 -124.1 -9.3 -128 0 -132L0 0Z" fill="#7994ff"></path><path d="M-66.7 0C-67.3 -5.3 -67.9 -10.7 -65.8 -15C-63.7 -19.4 -58.9 -22.8 -56.1 -27C-53.3 -31.2 -52.6 -36.3 -49.5 -39.4C-46.3 -42.6 -40.8 -43.7 -36.5 -45.7C-32.2 -47.8 -29.1 -50.6 -25.6 -53.2C-22.1 -55.7 -18 -57.9 -13.7 -60C-9.3 -62 -4.7 -64 0 -66L0 0Z" fill="#4f81ff"></path></g><g transform="translate(0, 0)"><path d="M245 0C243.9 18.4 242.7 36.8 238.9 54.5C235 72.2 228.3 89.3 222.5 107.2C216.8 125 211.9 143.7 204.1 162.7C196.3 181.8 185.5 201.2 168.3 211.1C151.1 221 127.5 221.4 106.7 221.6C86 221.9 68.3 221.9 51 223.3C33.7 224.6 16.8 227.3 0 230L0 0Z" fill="#e8e9ff"></path><path d="M183.8 0C182.9 13.8 182.1 27.6 179.1 40.9C176.2 54.2 171.2 67 166.9 80.4C162.6 93.8 158.9 107.8 153 122C147.2 136.3 139.2 150.9 126.3 158.3C113.4 165.8 95.6 166.1 80.1 166.2C64.5 166.4 51.2 166.4 38.2 167.4C25.2 168.5 12.6 170.5 0 172.5L0 0Z" fill="#b6bdff"></path><path d="M122.5 0C121.9 9.2 121.4 18.4 119.4 27.3C117.5 36.1 114.2 44.7 111.3 53.6C108.4 62.5 105.9 71.8 102 81.4C98.1 90.9 92.8 100.6 84.2 105.5C75.6 110.5 63.7 110.7 53.4 110.8C43 110.9 34.1 110.9 25.5 111.6C16.8 112.3 8.4 113.7 0 115L0 0Z" fill="#7994ff"></path><path d="M61.3 0C61 4.6 60.7 9.2 59.7 13.6C58.7 18.1 57.1 22.3 55.6 26.8C54.2 31.3 53 35.9 51 40.7C49.1 45.4 46.4 50.3 42.1 52.8C37.8 55.3 31.9 55.4 26.7 55.4C21.5 55.5 17.1 55.5 12.7 55.8C8.4 56.2 4.2 56.8 0 57.5L0 0Z" fill="#4f81ff"></path></g></svg>