<svg id="visual" viewBox="0 0 960 540" width="960" height="540" xmlns="http://www.w3.org/2000/svg" xmlns:xlink="http://www.w3.org/1999/xlink" version="1.1"><rect x="0" y="0" width="960" height="540" fill="#ffffff"></rect><path d="M0 384L22.8 372.5C45.7 361 91.3 338 137 336.3C182.7 334.7 228.3 354.3 274 359.5C319.7 364.7 365.3 355.3 411.2 358.3C457 361.3 503 376.7 548.8 377.5C594.7 378.3 640.3 364.7 686 359C731.7 353.3 777.3 355.7 823 355.7C868.7 355.7 914.3 353.3 937.2 352.2L960 351L960 541L937.2 541C914.3 541 868.7 541 823 541C777.3 541 731.7 541 686 541C640.3 541 594.7 541 548.8 541C503 541 457 541 411.2 541C365.3 541 319.7 541 274 541C228.3 541 182.7 541 137 541C91.3 541 45.7 541 22.8 541L0 541Z" fill="#4f81ff"></path><path d="M0 392L22.8 387C45.7 382 91.3 372 137 374.3C182.7 376.7 228.3 391.3 274 393C319.7 394.7 365.3 383.3 411.2 387.7C457 392 503 412 548.8 413.7C594.7 415.3 640.3 398.7 686 388.5C731.7 378.3 777.3 374.7 823 375.3C868.7 376 914.3 381 937.2 383.5L960 386L960 541L937.2 541C914.3 541 868.7 541 823 541C777.3 541 731.7 541 686 541C640.3 541 594.7 541 548.8 541C503 541 457 541 411.2 541C365.3 541 319.7 541 274 541C228.3 541 182.7 541 137 541C91.3 541 45.7 541 22.8 541L0 541Z" fill="#6590fc"></path><path d="M0 454L22.8 447.3C45.7 440.7 91.3 427.3 137 421.3C182.7 415.3 228.3 416.7 274 416.8C319.7 417 365.3 416 411.2 415C457 414 503 413 548.8 413.7C594.7 414.3 640.3 416.7 686 414.7C731.7 412.7 777.3 406.3 823 411C868.7 415.7 914.3 431.3 937.2 439.2L960 447L960 541L937.2 541C914.3 541 868.7 541 823 541C777.3 541 731.7 541 686 541C640.3 541 594.7 541 548.8 541C503 541 457 541 411.2 541C365.3 541 319.7 541 274 541C228.3 541 182.7 541 137 541C91.3 541 45.7 541 22.8 541L0 541Z" fill="#7a9ef8"></path><path d="M0 474L22.8 474.3C45.7 474.7 91.3 475.3 137 473.2C182.7 471 228.3 466 274 466.8C319.7 467.7 365.3 474.3 411.2 472.8C457 471.3 503 461.7 548.8 458C594.7 454.3 640.3 456.7 686 460.3C731.7 464 777.3 469 823 469.8C868.7 470.7 914.3 467.3 937.2 465.7L960 464L960 541L937.2 541C914.3 541 868.7 541 823 541C777.3 541 731.7 541 686 541C640.3 541 594.7 541 548.8 541C503 541 457 541 411.2 541C365.3 541 319.7 541 274 541C228.3 541 182.7 541 137 541C91.3 541 45.7 541 22.8 541L0 541Z" fill="#8facf4"></path><path d="M0 511L22.8 506.3C45.7 501.7 91.3 492.3 137 491.3C182.7 490.3 228.3 497.7 274 499.3C319.7 501 365.3 497 411.2 494.8C457 492.7 503 492.3 548.8 495C594.7 497.7 640.3 503.3 686 505.5C731.7 507.7 777.3 506.3 823 500.2C868.7 494 914.3 483 937.2 477.5L960 472L960 541L937.2 541C914.3 541 868.7 541 823 541C777.3 541 731.7 541 686 541C640.3 541 594.7 541 548.8 541C503 541 457 541 411.2 541C365.3 541 319.7 541 274 541C228.3 541 182.7 541 137 541C91.3 541 45.7 541 22.8 541L0 541Z" fill="#a3b9ef"></path></svg>