<svg id="visual" viewBox="0 0 960 540" width="960" height="540" xmlns="http://www.w3.org/2000/svg" xmlns:xlink="http://www.w3.org/1999/xlink" version="1.1"><rect x="0" y="0" width="960" height="540" fill="#ffffff"></rect><path d="M0 154L22.8 165.5C45.7 177 91.3 200 137 201.7C182.7 203.3 228.3 183.7 274 178.5C319.7 173.3 365.3 182.7 411.2 179.7C457 176.7 503 161.3 548.8 160.5C594.7 159.7 640.3 173.3 686 179C731.7 184.7 777.3 182.3 823 182.3C868.7 182.3 914.3 184.7 937.2 185.8L960 187L960 0L937.2 0C914.3 0 868.7 0 823 0C777.3 0 731.7 0 686 0C640.3 0 594.7 0 548.8 0C503 0 457 0 411.2 0C365.3 0 319.7 0 274 0C228.3 0 182.7 0 137 0C91.3 0 45.7 0 22.8 0L0 0Z" fill="#4f81ff"></path><path d="M0 146L22.8 151C45.7 156 91.3 166 137 163.7C182.7 161.3 228.3 146.7 274 145C319.7 143.3 365.3 154.7 411.2 150.3C457 146 503 126 548.8 124.3C594.7 122.7 640.3 139.3 686 149.5C731.7 159.7 777.3 163.3 823 162.7C868.7 162 914.3 157 937.2 154.5L960 152L960 0L937.2 0C914.3 0 868.7 0 823 0C777.3 0 731.7 0 686 0C640.3 0 594.7 0 548.8 0C503 0 457 0 411.2 0C365.3 0 319.7 0 274 0C228.3 0 182.7 0 137 0C91.3 0 45.7 0 22.8 0L0 0Z" fill="#6590fc"></path><path d="M0 84L22.8 90.7C45.7 97.3 91.3 110.7 137 116.7C182.7 122.7 228.3 121.3 274 121.2C319.7 121 365.3 122 411.2 123C457 124 503 125 548.8 124.3C594.7 123.7 640.3 121.3 686 123.3C731.7 125.3 777.3 131.7 823 127C868.7 122.3 914.3 106.7 937.2 98.8L960 91L960 0L937.2 0C914.3 0 868.7 0 823 0C777.3 0 731.7 0 686 0C640.3 0 594.7 0 548.8 0C503 0 457 0 411.2 0C365.3 0 319.7 0 274 0C228.3 0 182.7 0 137 0C91.3 0 45.7 0 22.8 0L0 0Z" fill="#7a9ef8"></path><path d="M0 64L22.8 63.7C45.7 63.3 91.3 62.7 137 64.8C182.7 67 228.3 72 274 71.2C319.7 70.3 365.3 63.7 411.2 65.2C457 66.7 503 76.3 548.8 80C594.7 83.7 640.3 81.3 686 77.7C731.7 74 777.3 69 823 68.2C868.7 67.3 914.3 70.7 937.2 72.3L960 74L960 0L937.2 0C914.3 0 868.7 0 823 0C777.3 0 731.7 0 686 0C640.3 0 594.7 0 548.8 0C503 0 457 0 411.2 0C365.3 0 319.7 0 274 0C228.3 0 182.7 0 137 0C91.3 0 45.7 0 22.8 0L0 0Z" fill="#8facf4"></path><path d="M0 27L22.8 31.7C45.7 36.3 91.3 45.7 137 46.7C182.7 47.7 228.3 40.3 274 38.7C319.7 37 365.3 41 411.2 43.2C457 45.3 503 45.7 548.8 43C594.7 40.3 640.3 34.7 686 32.5C731.7 30.3 777.3 31.7 823 37.8C868.7 44 914.3 55 937.2 60.5L960 66L960 0L937.2 0C914.3 0 868.7 0 823 0C777.3 0 731.7 0 686 0C640.3 0 594.7 0 548.8 0C503 0 457 0 411.2 0C365.3 0 319.7 0 274 0C228.3 0 182.7 0 137 0C91.3 0 45.7 0 22.8 0L0 0Z" fill="#a3b9ef"></path></svg>