<svg id="visual" viewBox="0 0 960 600" width="960" height="600" xmlns="http://www.w3.org/2000/svg" xmlns:xlink="http://www.w3.org/1999/xlink" version="1.1"><rect x="0" y="0" width="960" height="600" fill="#ffffff"></rect><defs><linearGradient id="grad1_0" x1="37.5%" y1="100%" x2="100%" y2="0%"><stop offset="17.999999999999996%" stop-color="#ffffff" stop-opacity="1"></stop><stop offset="82%" stop-color="#ffffff" stop-opacity="1"></stop></linearGradient></defs><defs><linearGradient id="grad2_0" x1="0%" y1="100%" x2="62.5%" y2="0%"><stop offset="17.999999999999996%" stop-color="#ffffff" stop-opacity="1"></stop><stop offset="82%" stop-color="#ffffff" stop-opacity="1"></stop></linearGradient></defs><g transform="translate(960, 600)"><path d="M-254.7 0C-236.1 -21.5 -217.4 -42.9 -209.2 -68C-201 -93 -203.3 -121.6 -190.1 -138.1C-176.9 -154.6 -148.3 -159.1 -128.7 -177.2C-109.2 -195.3 -98.7 -227 -78.7 -242.3C-58.8 -257.5 -29.4 -256.1 0 -254.7L0 0Z" fill="#3c53fa"></path></g><g transform="translate(0, 0)"><path d="M254.7 0C242.4 22.6 230 45.2 225.4 73.2C220.8 101.3 224 134.7 206.1 149.7C188.1 164.7 149.1 161.3 124.6 171.5C100.2 181.7 90.3 205.5 72 221.6C53.7 237.7 26.8 246.2 0 254.7L0 0Z" fill="#3c53fa"></path></g></svg>